#!OML:ASF F:\VICON\USERDATA\INSTALL\rory3\rory3.ASF
:FULLY-SPECIFIED
:DEGREES
685
root 1.13623 15.3272 -5.4304 -3.49869 -1.74402 2.52227
lowerback -3.68301 11.0582 9.30376
upperback -4.34419 14.6436 -7.38595
thorax 1.6798 7.34124 -11.7318
lowerneck 3.24481 -7.84193 -13.5418
upperneck 49.7274 -4.29697 -10.9599
head 19.1776 -5.35475 -3.59254
rclavicle -2.74323e-014 -2.54444e-014
rhumerus 66.0487 -2.80086 -72.6916
rradius 143.108
rwrist -62.014
rhand 0.0660204 -39.4883
rfingers 7.12502
rthumb 25.6536 -67.78
lclavicle -2.74323e-014 -2.54444e-014
lhumerus -53.2719 -18.2462 85.3745
lradius 32.723
lwrist 19.4105
lhand -15.4311 -22.5069
lfingers 7.12502
lthumb 10.749 7.19811
rfemur -20.3087 -34.5196 21.4332
rtibia 68.3231
rfoot -48.6286 -37.0731
rtoes 9.70721
lfemur -36.4619 -18.489 -3.29418
ltibia 19.0221
lfoot 11.34 -8.27287
ltoes -16.4621
686
root 1.13391 15.3291 -5.42338 -3.53172 -1.73253 2.40385
lowerback -3.68665 11.1218 9.44623
upperback -4.3596 14.7278 -7.41244
thorax 1.72934 7.38643 -11.8203
lowerneck 3.14588 -7.88436 -13.2818
upperneck 49.838 -4.27749 -11.1415
head 19.2498 -5.32229 -3.74134
rclavicle -1.59028e-014 6.36111e-015
rhumerus 66.0475 -2.95254 -72.6181
rradius 143.136
rwrist -62.082
rhand 0.215059 -39.8746
rfingers 7.12502
rthumb 25.7963 -68.1456
lclavicle -1.59028e-014 6.36111e-015
lhumerus -53.4972 -18.5394 85.5517
lradius 32.9234
lwrist 19.7107
lhand -15.759 -23.2759
lfingers 7.12502
lthumb 10.4326 6.44529
rfemur -20.1296 -34.5376 21.4891
rtibia 68.2584
rfoot -48.9036 -36.6534
rtoes 10.1653
lfemur -36.442 -18.5975 -3.1316
ltibia 19.064
lfoot 11.3173 -8.1965
ltoes -16.2794
687
root 1.13007 15.3337 -5.41686 -3.57523 -1.67066 2.2699
lowerback -3.74328 11.1531 9.55387
upperback -4.34277 14.7639 -7.40749
thorax 1.81258 7.40967 -11.8506
lowerneck 3.13168 -7.90936 -13.1422
upperneck 49.8929 -4.26328 -11.2651
head 19.2754 -5.30539 -3.83091
rclavicle 1.2762e-013 4.45278e-014
rhumerus 66.1021 -3.02651 -72.4867
rradius 143.105
rwrist -61.9844
rhand 0.0743015 -40.2224
rfingers 7.12502
rthumb 25.6615 -68.5129
lclavicle 1.2762e-013 4.45278e-014
lhumerus -53.7951 -18.6851 85.6176
lradius 33.2772
lwrist 19.7553
lhand -15.4337 -23.9801
lfingers 7.12502
lthumb 10.7465 5.72502
rfemur -19.9317 -34.6189 21.569
rtibia 68.1562
rfoot -48.8999 -36.5213
rtoes 10.2322
lfemur -36.434 -18.7971 -2.93078
ltibia 19.1247
lfoot 11.23 -8.08038
ltoes -16.2416
688
root 1.12506 15.3355 -5.41375 -3.68937 -1.58415 2.18515
lowerback -3.77719 11.1043 9.53702
upperback -4.23749 14.6941 -7.33288
thorax 1.90023 7.38223 -11.7548
lowerneck 3.00438 -7.88881 -13.3013
upperneck 49.9138 -4.22861 -11.1583
head 19.3458 -5.30923 -3.76154
rclavicle -8.74653e-015 2.8625e-014
rhumerus 66.4679 -3.0739 -72.4394
rradius 142.945
rwrist -62.0556
rhand -0.0657218 -40.1017
rfingers 7.12502
rthumb 25.5274 -68.4115
lclavicle -8.74653e-015 2.8625e-014
lhumerus -53.8641 -18.5149 85.5916
lradius 33.4525
lwrist 19.5393
lhand -14.9073 -23.4283
lfingers 7.12502
lthumb 11.2542 6.24984
rfemur -19.728 -34.7069 21.5984
rtibia 68.0712
rfoot -48.8086 -36.7466
rtoes 9.95942
lfemur -36.3482 -18.906 -2.86037
ltibia 19.1557
lfoot 11.124 -8.03232
ltoes -15.9093
689
root 1.12206 15.3325 -5.41476 -3.74822 -1.53518 2.2124
lowerback -3.7167 11.0831 9.47269
upperback -4.21787 14.6728 -7.36081
thorax 1.87458 7.37214 -11.7654
lowerneck 2.85458 -7.92139 -13.4575
upperneck 50.0191 -4.30776 -10.9637
head 19.4813 -5.35356 -3.67838
rclavicle -6.75868e-014 -4.92986e-014
rhumerus 66.8864 -3.31059 -72.591
rradius 142.658
rwrist -62.3215
rhand 0.236277 -39.9058
rfingers 7.12502
rthumb 25.8167 -68.1738
lclavicle -6.75868e-014 -4.92986e-014
lhumerus -54.1087 -18.6321 85.6203
lradius 33.749
lwrist 19.7948
lhand -14.849 -22.6178
lfingers 7.12502
lthumb 11.3104 7.05722
rfemur -19.6771 -34.7485 21.5577
rtibia 68.0484
rfoot -48.8118 -36.8756
rtoes 9.75739
lfemur -36.3066 -18.929 -2.91378
ltibia 19.1565
lfoot 11.1613 -8.00638
ltoes -15.8685
